<?xml version="1.0" encoding="UTF-8"?>
<svg id="Layer_1" data-name="Layer 1" xmlns="http://www.w3.org/2000/svg" viewBox="0 0 307.51 51.98">
  <defs>
    <style>
      .cls-1 {
        fill: #1e5186;
      }
    </style>
  </defs>
  <path class="cls-1" d="M20.66,51.98c-2.69,0-5.03-.58-7.02-1.73-1.99-1.15-3.54-2.76-4.64-4.82l-.22,5.69H0V0h9.22v18.14c1.06-1.78,2.57-3.28,4.54-4.5,1.97-1.22,4.27-1.84,6.91-1.84,3.31,0,6.18.83,8.6,2.48,2.42,1.66,4.29,3.98,5.62,6.98,1.32,3,1.98,6.54,1.98,10.62s-.66,7.62-1.98,10.62c-1.32,3-3.19,5.33-5.62,6.98-2.42,1.66-5.29,2.48-8.6,2.48ZM18.58,44.5c2.64,0,4.75-1.12,6.34-3.35,1.58-2.23,2.38-5.31,2.38-9.25s-.78-7.08-2.34-9.29c-1.56-2.21-3.66-3.31-6.3-3.31-1.97,0-3.66.49-5.08,1.48-1.42.98-2.5,2.41-3.24,4.28-.74,1.87-1.12,4.15-1.12,6.84s.37,4.84,1.12,6.73c.74,1.9,1.81,3.35,3.2,4.36,1.39,1.01,3.07,1.51,5.04,1.51Z"/>
  <path class="cls-1" d="M52.27,51.98c-3.27,0-6.08-.82-8.46-2.45-2.38-1.63-4.21-3.96-5.51-6.98-1.3-3.02-1.94-6.58-1.94-10.66s.65-7.63,1.94-10.66c1.3-3.02,3.14-5.35,5.54-6.98,2.4-1.63,5.21-2.45,8.42-2.45,2.69,0,5.05.55,7.09,1.66,2.04,1.1,3.59,2.66,4.64,4.68V0h9.22v51.12h-8.78l-.22-5.69c-1.06,2.06-2.64,3.67-4.75,4.82-2.11,1.15-4.51,1.73-7.2,1.73ZM55.08,44.5c1.92,0,3.54-.48,4.86-1.44,1.32-.96,2.33-2.39,3.02-4.28.7-1.9,1.04-4.19,1.04-6.88s-.35-5.04-1.04-6.91c-.7-1.87-1.7-3.29-3.02-4.25-1.32-.96-2.94-1.44-4.86-1.44-2.78,0-5,1.12-6.66,3.35-1.66,2.23-2.48,5.32-2.48,9.25s.83,6.9,2.48,9.18c1.66,2.28,3.88,3.42,6.66,3.42Z"/>
  <path class="cls-1" d="M89.28,51.98c-3.89,0-6.97-1.28-9.25-3.85-2.28-2.57-3.42-6.13-3.42-10.69V12.67h9.22v22.46c0,3.22.54,5.58,1.62,7.09,1.08,1.51,2.72,2.27,4.93,2.27,2.5,0,4.43-.83,5.8-2.48,1.37-1.66,2.05-4.07,2.05-7.24V12.67h9.22v38.45h-8.42l-.22-10.58,1.15.36c-.58,3.65-1.94,6.41-4.1,8.28-2.16,1.87-5.02,2.81-8.57,2.81Z"/>
  <path class="cls-1" d="M130.17,51.98c-3.84,0-7.18-.83-10.01-2.48-2.83-1.66-5.03-4-6.59-7.02-1.56-3.02-2.34-6.55-2.34-10.58s.78-7.55,2.34-10.55c1.56-3,3.76-5.34,6.59-7.02,2.83-1.68,6.17-2.52,10.01-2.52,3.26,0,6.17.58,8.71,1.73,2.54,1.15,4.62,2.8,6.23,4.93,1.61,2.14,2.6,4.74,2.99,7.81l-9.5.5c-.38-2.45-1.33-4.31-2.84-5.58-1.51-1.27-3.37-1.91-5.58-1.91-2.98,0-5.28,1.12-6.91,3.35-1.63,2.23-2.45,5.32-2.45,9.25s.82,7.08,2.45,9.29c1.63,2.21,3.94,3.31,6.91,3.31,2.26,0,4.14-.65,5.65-1.94,1.51-1.29,2.44-3.31,2.77-6.05l9.5.43c-.38,3.07-1.37,5.74-2.95,7.99s-3.65,4-6.19,5.22c-2.54,1.22-5.47,1.84-8.78,1.84Z"/>
  <path class="cls-1" d="M149.11,51.12V0h9.22v30.02l15.77-17.35h11.38l-15.05,15.98,15.55,22.46h-10.37l-11.23-16.99-6.05,6.41v10.58h-9.22Z"/>
  <path class="cls-1" d="M185.25,51.12v-10.08h10.51v10.08h-10.51Z"/>
  <path class="cls-1" d="M211.97,51.98c-3.27,0-6.08-.82-8.46-2.45-2.38-1.63-4.21-3.96-5.51-6.98-1.29-3.02-1.94-6.58-1.94-10.66s.65-7.63,1.94-10.66c1.3-3.02,3.14-5.35,5.54-6.98,2.4-1.63,5.21-2.45,8.42-2.45,2.69,0,5.05.55,7.09,1.66,2.04,1.1,3.59,2.66,4.64,4.68V0h9.21v51.12h-8.78l-.22-5.69c-1.06,2.06-2.64,3.67-4.75,4.82-2.11,1.15-4.51,1.73-7.2,1.73ZM214.77,44.5c1.92,0,3.54-.48,4.86-1.44,1.32-.96,2.33-2.39,3.02-4.28s1.04-4.19,1.04-6.88-.35-5.04-1.04-6.91c-.7-1.87-1.7-3.29-3.02-4.25-1.32-.96-2.94-1.44-4.86-1.44-2.78,0-5,1.12-6.66,3.35-1.66,2.23-2.48,5.32-2.48,9.25s.83,6.9,2.48,9.18c1.66,2.28,3.88,3.42,6.66,3.42Z"/>
  <path class="cls-1" d="M253.51,51.98c-3.84,0-7.18-.83-10.01-2.48-2.83-1.66-5.02-4-6.55-7.02-1.54-3.02-2.3-6.55-2.3-10.58s.77-7.55,2.3-10.55,3.71-5.34,6.52-7.02c2.81-1.68,6.08-2.52,9.83-2.52s6.85.82,9.61,2.45c2.76,1.63,4.88,3.98,6.37,7.06,1.49,3.07,2.23,6.77,2.23,11.09v2.09h-27.29c.19,3.36,1.12,5.89,2.77,7.6,1.66,1.7,3.85,2.56,6.59,2.56,2.06,0,3.78-.47,5.15-1.4,1.37-.94,2.31-2.24,2.84-3.92l9.43.58c-1.06,3.74-3.13,6.7-6.23,8.86-3.1,2.16-6.85,3.24-11.27,3.24ZM244.22,28.3h17.78c-.19-3.12-1.08-5.44-2.66-6.95-1.58-1.51-3.6-2.27-6.05-2.27s-4.48.79-6.08,2.38c-1.61,1.58-2.6,3.86-2.99,6.84Z"/>
  <path class="cls-1" d="M282.52,51.12l-14.04-38.45h9.72l9.79,29.16,9.79-29.16h9.72l-14.04,38.45h-10.94Z"/>
</svg>